<svg width="48" height="48" viewBox="0 0 48 48" fill="none" xmlns="http://www.w3.org/2000/svg">
<circle cx="24" cy="24" r="24" fill="#556EE6"/>
<path d="M14.474 23.67V24.918H9.131V23.67H14.474ZM17.2035 26.985C18.0355 26.2657 18.6898 25.6763 19.1665 25.217C19.6518 24.749 20.0548 24.2637 20.3755 23.761C20.6962 23.2583 20.8565 22.7557 20.8565 22.253C20.8565 21.733 20.7308 21.3257 20.4795 21.031C20.2368 20.7363 19.8512 20.589 19.3225 20.589C18.8112 20.589 18.4125 20.7537 18.1265 21.083C17.8492 21.4037 17.7018 21.837 17.6845 22.383H16.2545C16.2805 21.395 16.5752 20.641 17.1385 20.121C17.7105 19.5923 18.4342 19.328 19.3095 19.328C20.2542 19.328 20.9908 19.588 21.5195 20.108C22.0568 20.628 22.3255 21.3213 22.3255 22.188C22.3255 22.812 22.1652 23.4143 21.8445 23.995C21.5325 24.567 21.1555 25.0827 20.7135 25.542C20.2802 25.9927 19.7255 26.517 19.0495 27.115L18.4645 27.635H22.5855V28.87H16.2675V27.791L17.2035 26.985ZM29.9974 20.797H25.6424V23.384C25.8244 23.1413 26.0931 22.9377 26.4484 22.773C26.8124 22.6083 27.1981 22.526 27.6054 22.526C28.3334 22.526 28.9228 22.682 29.3734 22.994C29.8328 23.306 30.1578 23.7003 30.3484 24.177C30.5478 24.6537 30.6474 25.1563 30.6474 25.685C30.6474 26.3263 30.5218 26.8983 30.2704 27.401C30.0278 27.895 29.6594 28.285 29.1654 28.571C28.6801 28.857 28.0821 29 27.3714 29C26.4268 29 25.6684 28.766 25.0964 28.298C24.5244 27.83 24.1821 27.2103 24.0694 26.439H25.5124C25.6078 26.8463 25.8201 27.1713 26.1494 27.414C26.4788 27.648 26.8904 27.765 27.3844 27.765C27.9998 27.765 28.4591 27.5787 28.7624 27.206C29.0744 26.8333 29.2304 26.3393 29.2304 25.724C29.2304 25.1 29.0744 24.6233 28.7624 24.294C28.4504 23.956 27.9911 23.787 27.3844 23.787C26.9598 23.787 26.6001 23.8953 26.3054 24.112C26.0194 24.32 25.8114 24.606 25.6814 24.97H24.2774V19.497H29.9974V20.797ZM31.9562 21.811C31.9562 21.1783 32.1382 20.6843 32.5022 20.329C32.8748 19.965 33.3515 19.783 33.9322 19.783C34.5128 19.783 34.9852 19.965 35.3492 20.329C35.7218 20.6843 35.9082 21.1783 35.9082 21.811C35.9082 22.4437 35.7218 22.942 35.3492 23.306C34.9852 23.67 34.5128 23.852 33.9322 23.852C33.3515 23.852 32.8748 23.67 32.5022 23.306C32.1382 22.942 31.9562 22.4437 31.9562 21.811ZM39.8862 19.952L34.6992 29H33.2432L38.4302 19.952H39.8862ZM33.9322 20.68C33.3862 20.68 33.1132 21.057 33.1132 21.811C33.1132 22.5737 33.3862 22.955 33.9322 22.955C34.1922 22.955 34.3915 22.864 34.5302 22.682C34.6775 22.4913 34.7512 22.201 34.7512 21.811C34.7512 21.057 34.4782 20.68 33.9322 20.68ZM37.2472 27.128C37.2472 26.4953 37.4292 26.0013 37.7932 25.646C38.1658 25.282 38.6425 25.1 39.2232 25.1C39.7952 25.1 40.2632 25.282 40.6272 25.646C40.9998 26.0013 41.1862 26.4953 41.1862 27.128C41.1862 27.7607 40.9998 28.259 40.6272 28.623C40.2632 28.987 39.7952 29.169 39.2232 29.169C38.6425 29.169 38.1658 28.987 37.7932 28.623C37.4292 28.259 37.2472 27.7607 37.2472 27.128ZM39.2102 25.997C38.6642 25.997 38.3912 26.374 38.3912 27.128C38.3912 27.882 38.6642 28.259 39.2102 28.259C39.7562 28.259 40.0292 27.882 40.0292 27.128C40.0292 26.374 39.7562 25.997 39.2102 25.997Z" fill="white"/>
</svg>
